<?xml version="1.0" encoding="UTF-8" standalone="no"?>
<!-- Created with Inkscape (http://www.inkscape.org/) -->

<svg
   width="80"
   height="48"
   viewBox="0 0 21.166667 12.7"
   version="1.1"
   id="svg5"
   xml:space="preserve"
   inkscape:version="1.2.2 (732a01da63, 2022-12-09)"
   sodipodi:docname="logo.svg"
   inkscape:export-filename="logo102.png"
   inkscape:export-xdpi="200"
   inkscape:export-ydpi="200"
   xmlns:inkscape="http://www.inkscape.org/namespaces/inkscape"
   xmlns:sodipodi="http://sodipodi.sourceforge.net/DTD/sodipodi-0.dtd"
   xmlns:xlink="http://www.w3.org/1999/xlink"
   xmlns="http://www.w3.org/2000/svg"
   xmlns:svg="http://www.w3.org/2000/svg"><sodipodi:namedview
     id="namedview7"
     pagecolor="#505050"
     bordercolor="#eeeeee"
     borderopacity="1"
     inkscape:showpageshadow="0"
     inkscape:pageopacity="0"
     inkscape:pagecheckerboard="0"
     inkscape:deskcolor="#505050"
     inkscape:document-units="mm"
     showgrid="false"
     inkscape:zoom="3.9228891"
     inkscape:cx="21.285333"
     inkscape:cy="62.708885"
     inkscape:window-width="1920"
     inkscape:window-height="1009"
     inkscape:window-x="-8"
     inkscape:window-y="-8"
     inkscape:window-maximized="1"
     inkscape:current-layer="layer1" /><defs
     id="defs2"><linearGradient
       inkscape:collect="always"
       id="linearGradient11216"><stop
         style="stop-color:#d45500;stop-opacity:0;"
         offset="0"
         id="stop11214" /><stop
         style="stop-color:#d45500;stop-opacity:1;"
         offset="0.56298202"
         id="stop11212" /></linearGradient><radialGradient
       inkscape:collect="always"
       xlink:href="#linearGradient11216"
       id="radialGradient11232"
       cx="116.1147"
       cy="83.009277"
       fx="116.1147"
       fy="83.009277"
       r="13.973234"
       gradientTransform="matrix(1,0,0,1.7210402,0,-59.853027)"
       gradientUnits="userSpaceOnUse" /></defs><g
     inkscape:groupmode="layer"
     id="layer2"
     inkscape:label="guides" /><g
     inkscape:label="Calque 1"
     inkscape:groupmode="layer"
     id="layer1"><g
       id="g11302"
       transform="matrix(0.76651729,0,0,0.77175354,-190.98195,-60.665972)"
       style="stroke-width:1.30017"><g
         id="g317"
         transform="matrix(0.11082341,0,0,0.11174831,220.33947,44.108141)"
         style="stroke-width:11.6832"><path
           id="text7981-2"
           style="font-style:normal;font-variant:normal;font-weight:bold;font-stretch:normal;font-size:176.652px;font-family:Rubik;-inkscape-font-specification:'Rubik Bold';fill:#e8e4d4;fill-opacity:1;stroke:none;stroke-width:0.549112;stroke-dasharray:none;stroke-opacity:1;paint-order:fill markers stroke;stop-color:#000000"
           d="m 280.6918,74.347454 -23.54488,91.973916 h 36.66244 c 0,0 5.9903,0.13483 11.88005,4.17324 5.65663,3.87857 10.97648,9.74088 11.49265,26.72636 l -9.06607,29.33464 17.11524,8.64457 10.45423,-33.83984 -0.0161,-2.28309 c -0.15684,-25.94369 -10.90564,-42.19342 -21.2797,-49.30658 -10.37406,-7.11317 -20.58025,-6.97121 -20.58025,-6.97121 h -11.28282 l 15.65175,-61.142058 z m 18.19671,15.764827 -5.17062,20.215839 c 0.86079,-0.0685 1.69818,-0.1084 2.50729,-0.1084 11.65901,0 18.37426,6.36012 18.37426,16.25261 0,5.98323 -2.46514,10.99371 -8.18367,15.44641 2.91085,1.08483 6.06228,2.57331 9.26515,4.76942 2.58388,1.77169 5.16386,4.13056 7.6241,6.94411 8.47943,-7.80379 12.49343,-16.0961 12.49343,-27.86452 0,-21.67803 -13.6832,-35.373738 -36.90994,-35.655469 z m -26.49875,5.419795 c -3.034,1.342976 -5.899,2.876194 -8.49036,4.620374 -1.05991,0.70661 -1.58724,1.76465 -1.58724,3.00121 0,0.52996 0.17398,1.23825 0.52729,1.76821 l 4.88007,8.86814 z m -4.45502,74.285054 c -4.8715,6.75284 -6.86008,14.87779 -6.86008,27.31577 v 14.13211 c 0,4.063 3.35757,7.41835 7.5972,7.41835 h 38.93837 l 6.3328,-20.48683 h -32.02448 v -5.12848 c 0,-10.81792 7.00981,-16.49634 16.38887,-22.32955 -2.5816,-0.77164 -4.51734,-0.92093 -4.53034,-0.92137 z"
           transform="scale(1.1306284,0.88446386)" /></g></g><g
       id="g1582"
       transform="matrix(0.23145288,0,0,0.23145288,-6.5069069,3.1322974)"
       style="stroke-width:4.32053" /><g
       aria-label="M"
       transform="matrix(0.02972827,0,0,0.0298932,-17.436031,2.8200184)"
       id="text251"
       style="font-weight:bold;font-size:593.509px;font-family:Arial;-inkscape-font-specification:'Arial Bold';fill:#000000;stroke-width:1.57662;stroke-linecap:square;stroke-linejoin:bevel;paint-order:fill markers stroke;stop-color:#000000" /><path
       id="path411"
       style="font-weight:bold;font-size:593.509px;font-family:Arial;-inkscape-font-specification:'Arial Bold';fill:#fef6f2;stroke-width:0.047;stroke-linecap:square;stroke-linejoin:bevel;paint-order:fill markers stroke;stop-color:#000000;fill-opacity:1"
       d="M 0 0 L 0 12.7 L 2.3693644 12.7 L 2.3693644 2.7026774 L 4.8674032 7.7101237 L 7.3230672 7.7101237 L 11.280448 0 L 8.3741659 0 L 6.1081543 4.9666219 L 3.8163045 0 L 0 0 z M 12.04991 0 L 5.6027588 12.7 L 8.0579061 12.7 L 13.505636 2.7026774 L 13.505636 12.7 L 15.875 12.7 L 15.875 0 L 12.04991 0 z M 19.05 8.4666667 A 2.1166668 2.1166668 0 0 0 16.933333 10.583333 A 2.1166668 2.1166668 0 0 0 19.05 12.7 A 2.1166668 2.1166668 0 0 0 21.166667 10.583333 A 2.1166668 2.1166668 0 0 0 19.05 8.4666667 z " /></g></svg>
