<?xml version="1.0" encoding="UTF-8" standalone="no"?>
<!-- Created with Inkscape (http://www.inkscape.org/) -->

<svg
   width="1200"
   height="150"
   viewBox="0 0 317.49999 39.6875"
   version="1.1"
   id="svg5"
   sodipodi:docname="portfolio.svg"
   xml:space="preserve"
   inkscape:version="1.2.2 (732a01da63, 2022-12-09)"
   xmlns:inkscape="http://www.inkscape.org/namespaces/inkscape"
   xmlns:sodipodi="http://sodipodi.sourceforge.net/DTD/sodipodi-0.dtd"
   xmlns="http://www.w3.org/2000/svg"
   xmlns:svg="http://www.w3.org/2000/svg"><sodipodi:namedview
     id="namedview7"
     pagecolor="#505050"
     bordercolor="#eeeeee"
     borderopacity="1"
     inkscape:showpageshadow="0"
     inkscape:pageopacity="0"
     inkscape:pagecheckerboard="0"
     inkscape:deskcolor="#505050"
     inkscape:document-units="mm"
     showgrid="false"
     inkscape:zoom="0.73673542"
     inkscape:cx="588.40662"
     inkscape:cy="-70.581648"
     inkscape:window-width="1920"
     inkscape:window-height="1009"
     inkscape:window-x="-8"
     inkscape:window-y="-8"
     inkscape:window-maximized="1"
     inkscape:current-layer="layer1" /><defs
     id="defs2"><rect
       x="-675.95502"
       y="255.17981"
       width="1620.6632"
       height="722.10455"
       id="rect240" /></defs><g
     inkscape:label="Calque 1"
     inkscape:groupmode="layer"
     id="layer1"><text
       xml:space="preserve"
       transform="scale(0.26458333)"
       id="text238"
       style="font-weight:bold;font-size:192px;line-height:normal;font-family:Arial;-inkscape-font-specification:'Arial Bold';text-decoration-color:#000000;white-space:pre;shape-inside:url(#rect240);display:inline;fill:#000000;stroke-width:0.755906;stroke-linecap:square;stroke-linejoin:bevel;paint-order:fill markers stroke;stop-color:#000000" /><g
       aria-label="PORTFOLIO"
       transform="scale(1.0174738,0.98282631)"
       id="text246"
       style="font-weight:bold;font-size:54.5517px;font-family:Arial;-inkscape-font-specification:'Arial Bold';stroke-width:0.2;stroke-linecap:square;stroke-linejoin:bevel;paint-order:fill markers stroke;stop-color:#000000" /><g
       aria-label="PORTFOLIO"
       transform="matrix(1.0358697,0,0,0.96537238,0,1.0583333)"
       id="text443"
       style="font-weight:bold;font-size:57.0987px;font-family:Arial;-inkscape-font-specification:'Arial Bold';fill:#eb5939;fill-opacity:1;stroke-width:0.600002;stroke-linecap:square;stop-color:#000000"><path
         d="M 3.8146973e-8,40.540077 V 0.45678877 Q 4.1111065,0.28549267 7.1944364,0.17129527 10.277766,0.05709786 12.390418,0.05709786 14.560169,-8.3923339e-7 15.645044,-8.3923339e-7 q 5.367278,0 8.907398,0.85648051923339 3.540119,0.79938182 5.538574,2.51234282 1.998454,1.7129611 2.854935,4.4536988 0.85648,2.7407377 0.85648,6.6234497 0,3.996909 -0.85648,6.851844 -0.799382,2.854935 -2.683639,4.682093 -1.827159,1.827159 -4.796291,2.740738 -2.969133,0.856481 -7.308634,0.856481 -1.256171,0 -2.112652,0 -0.799382,0 -1.427467,0 -0.628086,0 -1.256172,0 -0.628086,-0.0571 -1.484566,-0.114198 -0.856481,-0.0571 -2.1697507,-0.114197 V 40.540077 Z M 9.7067793,7.87962 v 13.874984 q 0.9135797,0.0571 1.5987637,0.114198 0.685184,0 1.256171,0.0571 0.628086,0 1.199073,0 0.628086,0 1.370369,0 2.797836,0 4.510797,-0.399691 1.77006,-0.399691 2.683639,-1.313271 0.970678,-0.913579 1.31327,-2.398145 0.342593,-1.484566 0.342593,-3.597218 0,-1.77006 -0.342593,-2.969133 Q 23.29627,9.9922719 22.43979,9.1928901 21.640408,8.3935083 20.155842,8.0509161 18.671275,7.6512252 16.387327,7.6512252 q -0.742283,0 -1.370368,0 -0.628086,0 -1.370369,0.057099 -0.685185,0 -1.655863,0.057099 -0.913579,0.057099 -2.2839477,0.1141968 z"
         style="font-family:Georama;-inkscape-font-specification:'Georama Bold';stroke-width:0.600001"
         id="path673" /><path
         d="m 55.15735,33.516937 q 1.541665,0 2.854935,-0.399691 1.370369,-0.399691 2.398145,-1.256171 1.027777,-0.91358 1.712961,-2.341047 0.742283,-1.484566 1.084876,-3.711416 0.399691,-2.283948 0.399691,-5.310179 0,-3.026231 -0.399691,-5.253081 Q 62.865674,13.018503 62.123391,11.591036 61.438207,10.106469 60.353332,9.2499888 59.325555,8.3364096 58.012285,7.9938174 56.699015,7.5941265 55.15735,7.5941265 q -1.541665,0 -2.854935,0.3996909 -1.256172,0.3425922 -2.283948,1.1990727 -1.027777,0.8564809 -1.77006,2.3410469 -0.742283,1.484566 -1.141974,3.768514 -0.399691,2.22685 -0.399691,5.253081 0,3.08333 0.399691,5.310179 0.399691,2.169751 1.141974,3.654317 0.742283,1.484566 1.77006,2.398145 1.027776,0.856481 2.341046,1.256172 1.31327,0.342592 2.797837,0.342592 z m 0.0571,7.594127 q -3.48302,0 -6.337955,-0.685184 -2.854936,-0.685185 -5.138884,-2.169751 -2.226849,-1.484566 -3.768514,-3.882712 -1.484566,-2.398145 -2.341047,-5.824067 -0.799381,-3.425922 -0.799381,-7.993818 0,-4.567896 0.742283,-7.93672 Q 38.370331,9.1928901 39.854898,6.7947446 41.396563,4.3965992 43.623412,2.9120329 45.850261,1.370368 48.705196,0.68518358 51.61723,-8.3923339e-7 55.15735,-8.3923339e-7 q 3.597218,0 6.452153,0.68518441923339 2.912034,0.68518442 5.081784,2.16975062 2.22685,1.4845663 3.711416,3.8827117 1.541665,2.3410468 2.283948,5.7669691 0.799382,3.368823 0.799382,7.879621 0,4.682093 -0.799382,8.165114 -0.742283,3.425922 -2.283948,5.824067 -1.541665,2.398146 -3.768514,3.882712 -2.22685,1.484566 -5.081785,2.169751 -2.854935,0.685184 -6.337956,0.685184 z"
         style="font-family:Georama;-inkscape-font-specification:'Georama Bold';stroke-width:0.600001"
         id="path675" /><path
         d="m 111.74211,41.111064 q -1.77006,0 -3.54012,-0.513888 -1.77006,-0.45679 -3.54012,-1.484566 -1.71296,-1.027777 -3.54012,-2.626541 -1.827156,-1.655862 -3.768512,-3.93981 -1.884257,-2.283948 -3.93981,-5.310179 -0.342593,0.0571 -0.970678,0.0571 -0.570987,0 -0.970678,0 -0.742283,0 -1.655863,0 -0.913579,0 -1.712961,-0.0571 V 40.540077 H 78.396469 V 0.57098618 Q 81.765293,0.34259137 84.563129,0.22839397 87.418064,0.11419656 89.759111,0.05709786 92.157256,-8.392334e-7 94.155711,-8.392334e-7 q 4.739192,0 8.050919,0.7422831192334 3.36882,0.68518442 5.48147,2.16975062 2.16975,1.4845663 3.14043,3.8827117 0.97068,2.3410468 0.97068,5.6527714 0,3.368823 -1.02778,5.824068 -1.02777,2.398145 -2.96913,3.93981 -1.88426,1.541665 -4.4537,2.398145 1.48457,1.827159 2.79784,3.140429 1.37037,1.31327 2.51234,2.226849 1.19907,0.91358 2.22685,1.370369 1.08488,0.399691 2.05555,0.399691 0.1713,0 0.45679,0 0.2855,-0.0571 0.45679,-0.0571 l 0.0571,9.24999 q -0.39969,0.0571 -0.91358,0.114198 -0.51389,0.0571 -1.25617,0.0571 z M 94.041513,20.212939 q 1.998455,0 3.483021,-0.342592 1.484566,-0.342592 2.398146,-1.084875 0.97068,-0.799382 1.42747,-1.998455 0.51389,-1.256171 0.51389,-3.083329 0,-2.22685 -0.68519,-3.54012 -0.68518,-1.3703688 -2.341046,-1.9984545 -1.598763,-0.6280857 -4.453698,-0.6280857 -0.91358,0 -1.598764,0 -0.628086,0 -1.31327,0.057099 -0.628086,0 -1.427468,0.057099 -0.799382,0.057099 -1.941356,0.1141974 V 20.041643 q 0.856481,0.0571 1.541665,0.114198 0.685185,0 1.370369,0.0571 0.685185,0 1.370369,0 0.742283,0 1.655862,0 z"
         style="font-family:Georama;-inkscape-font-specification:'Georama Bold';stroke-width:0.600001"
         id="path677" /><path
         d="M 151.65416,40.540077 V 0.57098618 h 28.43515 V 9.021594 h -18.72837 v 9.935174 h 16.27313 v 8.165114 h -16.21603 v 13.418195 z"
         style="font-family:Georama;-inkscape-font-specification:'Georama Bold';stroke-width:0.600001"
         id="path681" /><path
         d="m 200.30223,33.516937 q 1.54167,0 2.85494,-0.399691 1.37037,-0.399691 2.39814,-1.256171 1.02778,-0.91358 1.71296,-2.341047 0.74229,-1.484566 1.08488,-3.711416 0.39969,-2.283948 0.39969,-5.310179 0,-3.026231 -0.39969,-5.253081 -0.34259,-2.226849 -1.08488,-3.654316 -0.68518,-1.484567 -1.77006,-2.3410472 -1.02777,-0.9135792 -2.34104,-1.2561714 -1.31327,-0.3996909 -2.85494,-0.3996909 -1.54166,0 -2.85493,0.3996909 -1.25617,0.3425922 -2.28395,1.1990727 -1.02778,0.8564809 -1.77006,2.3410469 -0.74228,1.484566 -1.14197,3.768514 -0.3997,2.22685 -0.3997,5.253081 0,3.08333 0.3997,5.310179 0.39969,2.169751 1.14197,3.654317 0.74228,1.484566 1.77006,2.398145 1.02778,0.856481 2.34105,1.256172 1.31327,0.342592 2.79783,0.342592 z m 0.0571,7.594127 q -3.48302,0 -6.33796,-0.685184 -2.85493,-0.685185 -5.13888,-2.169751 -2.22685,-1.484566 -3.76851,-3.882712 -1.48457,-2.398145 -2.34105,-5.824067 -0.79938,-3.425922 -0.79938,-7.993818 0,-4.567896 0.74228,-7.93672 0.79938,-3.4259219 2.28395,-5.8240674 1.54166,-2.3981454 3.76851,-3.8827117 2.22685,-1.5416649 5.08179,-2.22684932 2.91203,-0.68518441923339 6.45215,-0.68518441923339 3.59722,0 6.45216,0.68518441923339 2.91203,0.68518442 5.08178,2.16975062 2.22685,1.4845663 3.71142,3.8827117 1.54166,2.3410468 2.28394,5.7669691 0.79939,3.368823 0.79939,7.879621 0,4.682093 -0.79939,8.165114 -0.74228,3.425922 -2.28394,5.824067 -1.54167,2.398146 -3.76852,3.882712 -2.22685,1.484566 -5.08178,2.169751 -2.85494,0.685184 -6.33796,0.685184 z"
         style="font-family:Georama;-inkscape-font-specification:'Georama Bold';stroke-width:0.600001"
         id="path683" /><path
         d="M 223.54135,40.540077 V 0.57098618 h 9.70678 V 32.089469 h 17.92899 v 8.450608 z"
         style="font-family:Georama;-inkscape-font-specification:'Georama Bold';stroke-width:0.600001"
         id="path685" /><path
         d="M 255.34529,40.540077 V 0.57098618 h 9.64968 V 40.540077 Z"
         style="font-family:Georama;-inkscape-font-specification:'Georama Bold';stroke-width:0.600001"
         id="path687" /><path
         d="m 288.177,33.516937 q 1.54167,0 2.85494,-0.399691 1.37037,-0.399691 2.39814,-1.256171 1.02778,-0.91358 1.71296,-2.341047 0.74229,-1.484566 1.08488,-3.711416 0.39969,-2.283948 0.39969,-5.310179 0,-3.026231 -0.39969,-5.253081 -0.34259,-2.226849 -1.08488,-3.654316 -0.68518,-1.484567 -1.77006,-2.3410472 -1.02777,-0.9135792 -2.34104,-1.2561714 -1.31327,-0.3996909 -2.85494,-0.3996909 -1.54166,0 -2.85493,0.3996909 -1.25617,0.3425922 -2.28395,1.1990727 -1.02778,0.8564809 -1.77006,2.3410469 -0.74228,1.484566 -1.14197,3.768514 -0.39969,2.22685 -0.39969,5.253081 0,3.08333 0.39969,5.310179 0.39969,2.169751 1.14197,3.654317 0.74228,1.484566 1.77006,2.398145 1.02778,0.856481 2.34105,1.256172 1.31327,0.342592 2.79783,0.342592 z m 0.0571,7.594127 q -3.48302,0 -6.33795,-0.685184 -2.85494,-0.685185 -5.13889,-2.169751 -2.22685,-1.484566 -3.76851,-3.882712 -1.48457,-2.398145 -2.34105,-5.824067 -0.79938,-3.425922 -0.79938,-7.993818 0,-4.567896 0.74228,-7.93672 0.79938,-3.4259219 2.28395,-5.8240674 1.54167,-2.3981454 3.76852,-3.8827117 2.22684,-1.5416649 5.08178,-2.22684932 Q 284.63688,-8.3923339e-7 288.177,-8.3923339e-7 q 3.59722,0 6.45216,0.68518441923339 2.91203,0.68518442 5.08178,2.16975062 2.22685,1.4845663 3.71142,3.8827117 1.54166,2.3410468 2.28394,5.7669691 0.79939,3.368823 0.79939,7.879621 0,4.682093 -0.79939,8.165114 -0.74228,3.425922 -2.28394,5.824067 -1.54167,2.398146 -3.76852,3.882712 -2.22685,1.484566 -5.08178,2.169751 -2.85494,0.685184 -6.33796,0.685184 z"
         style="font-family:Georama;-inkscape-font-specification:'Georama Bold';stroke-width:0.600001"
         id="path689" /><path
         d="M 127.79077,-9.3962398e-7 V 21.422189 h -12.35905 l 17.26326,19.68889 16.97011,-19.68889 H 137.8819 V -9.3962398e-7 Z"
         style="fill:#eb5939;fill-opacity:1;stroke-width:0.999997"
         id="path747" /></g><g
       aria-label="PORTFOLIO"
       transform="matrix(1.0358697,0,0,0.96537238,0,47.625002)"
       id="text443-5"
       style="font-weight:bold;font-size:57.0987px;font-family:Arial;-inkscape-font-specification:'Arial Bold';fill:#eb5939;fill-opacity:1;stroke-width:0.600002;stroke-linecap:square;stop-color:#000000"><path
         d="M 3.8146973e-8,40.540077 V 0.45678877 Q 4.1111065,0.28549267 7.1944364,0.17129527 10.277766,0.05709786 12.390418,0.05709786 14.560169,-8.3923339e-7 15.645044,-8.3923339e-7 q 5.367278,0 8.907398,0.85648051923339 3.540119,0.79938182 5.538574,2.51234282 1.998454,1.7129611 2.854935,4.4536988 0.85648,2.7407377 0.85648,6.6234497 0,3.996909 -0.85648,6.851844 -0.799382,2.854935 -2.683639,4.682093 -1.827159,1.827159 -4.796291,2.740738 -2.969133,0.856481 -7.308634,0.856481 -1.256171,0 -2.112652,0 -0.799382,0 -1.427467,0 -0.628086,0 -1.256172,0 -0.628086,-0.0571 -1.484566,-0.114198 -0.856481,-0.0571 -2.1697507,-0.114197 V 40.540077 Z M 9.7067793,7.87962 v 13.874984 q 0.9135797,0.0571 1.5987637,0.114198 0.685184,0 1.256171,0.0571 0.628086,0 1.199073,0 0.628086,0 1.370369,0 2.797836,0 4.510797,-0.399691 1.77006,-0.399691 2.683639,-1.313271 0.970678,-0.913579 1.31327,-2.398145 0.342593,-1.484566 0.342593,-3.597218 0,-1.77006 -0.342593,-2.969133 Q 23.29627,9.9922719 22.43979,9.1928901 21.640408,8.3935083 20.155842,8.0509161 18.671275,7.6512252 16.387327,7.6512252 q -0.742283,0 -1.370368,0 -0.628086,0 -1.370369,0.057099 -0.685185,0 -1.655863,0.057099 -0.913579,0.057099 -2.2839477,0.1141968 z"
         style="font-family:Georama;-inkscape-font-specification:'Georama Bold';stroke-width:0.600001"
         id="path673-4" /><path
         d="m 55.15735,33.516937 q 1.541665,0 2.854935,-0.399691 1.370369,-0.399691 2.398145,-1.256171 1.027777,-0.91358 1.712961,-2.341047 0.742283,-1.484566 1.084876,-3.711416 0.399691,-2.283948 0.399691,-5.310179 0,-3.026231 -0.399691,-5.253081 Q 62.865674,13.018503 62.123391,11.591036 61.438207,10.106469 60.353332,9.2499888 59.325555,8.3364096 58.012285,7.9938174 56.699015,7.5941265 55.15735,7.5941265 q -1.541665,0 -2.854935,0.3996909 -1.256172,0.3425922 -2.283948,1.1990727 -1.027777,0.8564809 -1.77006,2.3410469 -0.742283,1.484566 -1.141974,3.768514 -0.399691,2.22685 -0.399691,5.253081 0,3.08333 0.399691,5.310179 0.399691,2.169751 1.141974,3.654317 0.742283,1.484566 1.77006,2.398145 1.027776,0.856481 2.341046,1.256172 1.31327,0.342592 2.797837,0.342592 z m 0.0571,7.594127 q -3.48302,0 -6.337955,-0.685184 -2.854936,-0.685185 -5.138884,-2.169751 -2.226849,-1.484566 -3.768514,-3.882712 -1.484566,-2.398145 -2.341047,-5.824067 -0.799381,-3.425922 -0.799381,-7.993818 0,-4.567896 0.742283,-7.93672 Q 38.370331,9.1928901 39.854898,6.7947446 41.396563,4.3965992 43.623412,2.9120329 45.850261,1.370368 48.705196,0.68518358 51.61723,-8.3923339e-7 55.15735,-8.3923339e-7 q 3.597218,0 6.452153,0.68518441923339 2.912034,0.68518442 5.081784,2.16975062 2.22685,1.4845663 3.711416,3.8827117 1.541665,2.3410468 2.283948,5.7669691 0.799382,3.368823 0.799382,7.879621 0,4.682093 -0.799382,8.165114 -0.742283,3.425922 -2.283948,5.824067 -1.541665,2.398146 -3.768514,3.882712 -2.22685,1.484566 -5.081785,2.169751 -2.854935,0.685184 -6.337956,0.685184 z"
         style="font-family:Georama;-inkscape-font-specification:'Georama Bold';stroke-width:0.600001"
         id="path675-5" /><path
         d="m 111.74211,41.111064 q -1.77006,0 -3.54012,-0.513888 -1.77006,-0.45679 -3.54012,-1.484566 -1.71296,-1.027777 -3.54012,-2.626541 -1.827156,-1.655862 -3.768512,-3.93981 -1.884257,-2.283948 -3.93981,-5.310179 -0.342593,0.0571 -0.970678,0.0571 -0.570987,0 -0.970678,0 -0.742283,0 -1.655863,0 -0.913579,0 -1.712961,-0.0571 V 40.540077 H 78.396469 V 0.57098618 Q 81.765293,0.34259137 84.563129,0.22839397 87.418064,0.11419656 89.759111,0.05709786 92.157256,-8.392334e-7 94.155711,-8.392334e-7 q 4.739192,0 8.050919,0.7422831192334 3.36882,0.68518442 5.48147,2.16975062 2.16975,1.4845663 3.14043,3.8827117 0.97068,2.3410468 0.97068,5.6527714 0,3.368823 -1.02778,5.824068 -1.02777,2.398145 -2.96913,3.93981 -1.88426,1.541665 -4.4537,2.398145 1.48457,1.827159 2.79784,3.140429 1.37037,1.31327 2.51234,2.226849 1.19907,0.91358 2.22685,1.370369 1.08488,0.399691 2.05555,0.399691 0.1713,0 0.45679,0 0.2855,-0.0571 0.45679,-0.0571 l 0.0571,9.24999 q -0.39969,0.0571 -0.91358,0.114198 -0.51389,0.0571 -1.25617,0.0571 z M 94.041513,20.212939 q 1.998455,0 3.483021,-0.342592 1.484566,-0.342592 2.398146,-1.084875 0.97068,-0.799382 1.42747,-1.998455 0.51389,-1.256171 0.51389,-3.083329 0,-2.22685 -0.68519,-3.54012 -0.68518,-1.3703688 -2.341046,-1.9984545 -1.598763,-0.6280857 -4.453698,-0.6280857 -0.91358,0 -1.598764,0 -0.628086,0 -1.31327,0.057099 -0.628086,0 -1.427468,0.057099 -0.799382,0.057099 -1.941356,0.1141974 V 20.041643 q 0.856481,0.0571 1.541665,0.114198 0.685185,0 1.370369,0.0571 0.685185,0 1.370369,0 0.742283,0 1.655862,0 z"
         style="font-family:Georama;-inkscape-font-specification:'Georama Bold';stroke-width:0.600001"
         id="path677-5" /><path
         d="M 147.65727,9.0786927 H 135.89494 V 40.540077 h -9.64968 V 9.0786927 H 114.48293 V 0.57098618 h 33.17434 z"
         style="font-family:Georama;-inkscape-font-specification:'Georama Bold';stroke-width:0.600001"
         id="path679-9" /><path
         d="M 151.65416,40.540077 V 0.57098618 h 28.43515 V 9.021594 h -18.72837 v 9.935174 h 16.27313 v 8.165114 h -16.21603 v 13.418195 z"
         style="font-family:Georama;-inkscape-font-specification:'Georama Bold';stroke-width:0.600001"
         id="path681-2" /><path
         d="m 200.30223,33.516937 q 1.54167,0 2.85494,-0.399691 1.37037,-0.399691 2.39814,-1.256171 1.02778,-0.91358 1.71296,-2.341047 0.74229,-1.484566 1.08488,-3.711416 0.39969,-2.283948 0.39969,-5.310179 0,-3.026231 -0.39969,-5.253081 -0.34259,-2.226849 -1.08488,-3.654316 -0.68518,-1.484567 -1.77006,-2.3410472 -1.02777,-0.9135792 -2.34104,-1.2561714 -1.31327,-0.3996909 -2.85494,-0.3996909 -1.54166,0 -2.85493,0.3996909 -1.25617,0.3425922 -2.28395,1.1990727 -1.02778,0.8564809 -1.77006,2.3410469 -0.74228,1.484566 -1.14197,3.768514 -0.3997,2.22685 -0.3997,5.253081 0,3.08333 0.3997,5.310179 0.39969,2.169751 1.14197,3.654317 0.74228,1.484566 1.77006,2.398145 1.02778,0.856481 2.34105,1.256172 1.31327,0.342592 2.79783,0.342592 z m 0.0571,7.594127 q -3.48302,0 -6.33796,-0.685184 -2.85493,-0.685185 -5.13888,-2.169751 -2.22685,-1.484566 -3.76851,-3.882712 -1.48457,-2.398145 -2.34105,-5.824067 -0.79938,-3.425922 -0.79938,-7.993818 0,-4.567896 0.74228,-7.93672 0.79938,-3.4259219 2.28395,-5.8240674 1.54166,-2.3981454 3.76851,-3.8827117 2.22685,-1.5416649 5.08179,-2.22684932 2.91203,-0.68518441923339 6.45215,-0.68518441923339 3.59722,0 6.45216,0.68518441923339 2.91203,0.68518442 5.08178,2.16975062 2.22685,1.4845663 3.71142,3.8827117 1.54166,2.3410468 2.28394,5.7669691 0.79939,3.368823 0.79939,7.879621 0,4.682093 -0.79939,8.165114 -0.74228,3.425922 -2.28394,5.824067 -1.54167,2.398146 -3.76852,3.882712 -2.22685,1.484566 -5.08178,2.169751 -2.85494,0.685184 -6.33796,0.685184 z"
         style="font-family:Georama;-inkscape-font-specification:'Georama Bold';stroke-width:0.600001"
         id="path683-2" /><path
         d="M 223.54135,40.540077 V 0.57098618 h 9.70678 V 32.089469 h 17.92899 v 8.450608 z"
         style="font-family:Georama;-inkscape-font-specification:'Georama Bold';stroke-width:0.600001"
         id="path685-7" /><path
         d="M 255.34529,40.540077 V 0.57098618 h 9.64968 V 40.540077 Z"
         style="font-family:Georama;-inkscape-font-specification:'Georama Bold';stroke-width:0.600001"
         id="path687-2" /><path
         d="m 288.177,33.516937 q 1.54167,0 2.85494,-0.399691 1.37037,-0.399691 2.39814,-1.256171 1.02778,-0.91358 1.71296,-2.341047 0.74229,-1.484566 1.08488,-3.711416 0.39969,-2.283948 0.39969,-5.310179 0,-3.026231 -0.39969,-5.253081 -0.34259,-2.226849 -1.08488,-3.654316 -0.68518,-1.484567 -1.77006,-2.3410472 -1.02777,-0.9135792 -2.34104,-1.2561714 -1.31327,-0.3996909 -2.85494,-0.3996909 -1.54166,0 -2.85493,0.3996909 -1.25617,0.3425922 -2.28395,1.1990727 -1.02778,0.8564809 -1.77006,2.3410469 -0.74228,1.484566 -1.14197,3.768514 -0.39969,2.22685 -0.39969,5.253081 0,3.08333 0.39969,5.310179 0.39969,2.169751 1.14197,3.654317 0.74228,1.484566 1.77006,2.398145 1.02778,0.856481 2.34105,1.256172 1.31327,0.342592 2.79783,0.342592 z m 0.0571,7.594127 q -3.48302,0 -6.33795,-0.685184 -2.85494,-0.685185 -5.13889,-2.169751 -2.22685,-1.484566 -3.76851,-3.882712 -1.48457,-2.398145 -2.34105,-5.824067 -0.79938,-3.425922 -0.79938,-7.993818 0,-4.567896 0.74228,-7.93672 0.79938,-3.4259219 2.28395,-5.8240674 1.54167,-2.3981454 3.76852,-3.8827117 2.22684,-1.5416649 5.08178,-2.22684932 Q 284.63688,-8.3923339e-7 288.177,-8.3923339e-7 q 3.59722,0 6.45216,0.68518441923339 2.91203,0.68518442 5.08178,2.16975062 2.22685,1.4845663 3.71142,3.8827117 1.54166,2.3410468 2.28394,5.7669691 0.79939,3.368823 0.79939,7.879621 0,4.682093 -0.79939,8.165114 -0.74228,3.425922 -2.28394,5.824067 -1.54167,2.398146 -3.76852,3.882712 -2.22685,1.484566 -5.08178,2.169751 -2.85494,0.685184 -6.33796,0.685184 z"
         style="font-family:Georama;-inkscape-font-specification:'Georama Bold';stroke-width:0.600001"
         id="path689-3" /></g><path
       id="path530-6"
       style="fill:#eb5939;fill-opacity:1;stroke-width:0.999997"
       d="M 0,-42.333335 V -2.6458351 H 8.0222493 V -17.616496 h 5.2306887 c 3.631662,0 6.405217,-0.189434 8.320422,-0.568441 1.409302,-0.306815 2.79142,-0.92961 4.146517,-1.868103 1.373165,-0.956541 2.502577,-2.264932 3.387907,-3.925342 0.88533,-1.66041 1.327568,-3.70889 1.327568,-6.145361 0,-3.158389 -0.767959,-5.730537 -2.303736,-7.715809 -1.535778,-2.003321 -3.441951,-3.302372 -5.718514,-3.897954 -1.481574,-0.397055 -4.661117,-0.595829 -9.539469,-0.595829 z m 54.61062,0 c -3.234165,0 -6.089023,0.505996 -8.564335,1.518254 -1.861001,0.750466 -3.577643,1.902311 -5.149556,3.455603 -1.553846,1.553291 -2.782165,3.307507 -3.685564,5.262211 -1.210552,2.652812 -1.815909,5.933919 -1.815909,9.843328 0,6.108446 1.74357,10.908061 5.230688,14.3986032 3.487117,3.4730878 8.184971,5.2095007 14.093197,5.2095007 5.835954,0 10.497041,-1.7453139 13.984159,-5.2358557 3.487117,-3.5079942 5.230688,-8.3599892 5.230688,-14.5557002 0,-6.24807 -1.761178,-11.126255 -5.284432,-14.63425 -3.505185,-3.507994 -8.184914,-5.261694 -14.038936,-5.261694 z m 25.611357,0 v 39.6874999 h 8.295617 V -19.213815 h 1.681552 c 1.905786,0 3.297816,0.153105 4.175972,0.45992 0.878156,0.288767 1.709686,0.839422 2.494421,1.651579 0.784736,0.794108 2.241831,2.73412 4.371831,5.820317 l 5.99808,8.6361639 h 9.92084 l -5.01623,-7.7426799 c -1.98053,-3.086196 -3.55956,-5.233806 -4.73666,-6.443016 -1.15843,-1.209212 -2.63448,-2.319345 -4.42816,-3.33003 3.60605,-0.505343 6.31532,-1.723428 8.12767,-3.654557 1.81237,-1.949177 2.7187,-4.412854 2.7187,-7.390764 0,-2.346231 -0.5979,-4.430524 -1.79369,-6.253365 -1.19578,-1.822842 -2.79327,-3.086597 -4.79247,-3.790467 -1.98053,-0.721917 -5.16626,-1.082621 -9.55704,-1.082621 z m 49.278643,0 v 20.680391 h -9.17205 l 12.81162,19.0071089 12.59407,-19.0071089 h -8.74469 v -20.680391 z m 24.73699,0 v 39.6874999 h 8.29562 V -19.511471 h 17.15193 v -6.71432 h -17.15193 v -9.393742 h 19.87062 v -6.713802 z m 51.43924,0 c -3.23416,0 -6.08902,0.505996 -8.56433,1.518254 -1.861,0.750466 -3.57713,1.902311 -5.14904,3.455603 -1.55385,1.553291 -2.78268,3.307507 -3.68608,5.262211 -1.21056,2.652812 -1.81591,5.933919 -1.81591,9.843328 0,6.108446 1.74357,10.908061 5.23069,14.3986032 3.48711,3.4730878 8.18496,5.2095007 14.09319,5.2095007 5.83596,0 10.49756,-1.7453139 13.98468,-5.2358557 3.48712,-3.5079942 5.23069,-8.3599892 5.23069,-14.5557002 0,-6.24807 -1.76169,-11.126255 -5.28495,-14.63425 -3.50519,-3.507994 -8.18492,-5.261694 -14.03894,-5.261694 z m 25.80101,0 V -2.6458351 H 260.6399 V -9.3880588 H 239.84221 V -42.333335 Z m 33.44395,0 v 39.6874999 h 8.29562 V -42.333335 Z m 33.2543,0 c -3.23415,0 -6.08901,0.505996 -8.56433,1.518254 -1.86101,0.750466 -3.57765,1.902311 -5.14956,3.455603 -1.55385,1.553291 -2.78216,3.307507 -3.68556,5.262211 -1.21055,2.652812 -1.81591,5.933919 -1.81591,9.843328 0,6.108446 1.74357,10.908061 5.23069,14.3986032 3.48712,3.4730878 8.18497,5.2095007 14.0932,5.2095007 5.83594,0 10.49704,-1.7453139 13.98415,-5.2358557 3.48712,-3.5079942 5.23069,-8.3599892 5.23069,-14.5557002 0,-6.24807 -1.76118,-11.126255 -5.28443,-14.63425 -3.50518,-3.507994 -8.18491,-5.261694 -14.03894,-5.261694 z m -243.484358,6.623369 c 3.306439,0 5.953641,1.082177 7.941117,3.246313 2.005544,2.164137 3.008086,5.445244 3.008086,9.843328 0,4.45044 -1.029986,7.792314 -3.089734,10.026261 -2.041681,2.216493 -4.661438,3.3248612 -7.859469,3.3248612 -3.19803,0 -5.835913,-1.1167522 -7.913729,-3.3506992 -2.077816,-2.251399 -3.116605,-5.550313 -3.116605,-9.896037 0,-4.415537 1.011861,-7.713932 3.035473,-9.895521 2.023612,-2.199041 4.688423,-3.298506 7.994861,-3.298506 z m 151.066228,0 c 3.30643,0 5.95364,1.082177 7.94112,3.246313 2.00555,2.164137 3.00809,5.445244 3.00809,9.843328 0,4.45044 -1.02948,7.792314 -3.08922,10.026261 -2.04169,2.216493 -4.66196,3.3248612 -7.85999,3.3248612 -3.19803,0 -5.83591,-1.1167522 -7.91373,-3.3506992 -2.07782,-2.251399 -3.1166,-5.550313 -3.1166,-9.896037 0,-4.415537 1.01185,-7.713932 3.03547,-9.895521 2.02362,-2.199041 4.68843,-3.298506 7.99486,-3.298506 z m 92.49927,0 c 3.30644,0 5.95364,1.082177 7.94111,3.246313 2.00554,2.164137 3.00809,5.445244 3.00809,9.843328 0,4.45044 -1.02999,7.792314 -3.08973,10.026261 -2.04169,2.216493 -4.66144,3.3248612 -7.85947,3.3248612 -3.19803,0 -5.83591,-1.1167522 -7.91373,-3.3506992 -2.07781,-2.251399 -3.11661,-5.550313 -3.11661,-9.896037 0,-4.415537 1.01186,-7.713932 3.03548,-9.895521 2.02361,-2.199041 4.68842,-3.298506 7.99486,-3.298506 z m -290.2350007,0.09043 h 3.8757327 c 2.890875,0 4.814655,0.0903 5.772257,0.270785 1.300894,0.234623 2.376448,0.82109 3.225643,1.759582 0.849195,0.938494 1.273307,2.129592 1.273307,3.573426 0,1.173117 -0.307079,2.201768 -0.92139,3.086116 -0.596244,0.884348 -1.427379,1.534133 -2.493388,1.949236 -1.06601,0.415102 -3.179838,0.622701 -6.341732,0.622701 H 8.0222493 Z m 80.4953447,0 h 6.474024 c 3.363151,0 5.381262,0.04515 6.053892,0.135393 1.34525,0.216575 2.38224,0.739725 3.11092,1.56993 0.74737,0.812157 1.12086,1.886478 1.12086,3.222026 0,1.191163 -0.28024,2.183487 -0.84077,2.977596 -0.56053,0.794107 -1.3357,1.353586 -2.32596,1.678449 -0.99026,0.324864 -3.475628,0.48731 -7.455356,0.48731 h -6.13761 z" /><path
       id="path530-6-3"
       style="fill:#eb5939;fill-opacity:1;stroke-width:0.999997"
       d="m 0,-84.666671 v 39.687501 h 8.0222493 v -14.970662 h 5.2306887 c 3.631662,0 6.405217,-0.189434 8.320422,-0.568441 1.409302,-0.306815 2.79142,-0.92961 4.146517,-1.868103 1.373165,-0.956541 2.502577,-2.264932 3.387907,-3.925342 0.88533,-1.66041 1.327568,-3.70889 1.327568,-6.145361 0,-3.158389 -0.767959,-5.730537 -2.303736,-7.715809 -1.535778,-2.003321 -3.441951,-3.302372 -5.718514,-3.897954 -1.481574,-0.397055 -4.661117,-0.595829 -9.539469,-0.595829 z m 54.61062,0 c -3.234165,0 -6.089023,0.505996 -8.564335,1.518254 -1.861001,0.750466 -3.577643,1.902311 -5.149556,3.455603 -1.553846,1.553291 -2.782165,3.307507 -3.685564,5.262211 -1.210552,2.652812 -1.815909,5.933919 -1.815909,9.843328 0,6.108446 1.74357,10.908061 5.230688,14.398604 3.487117,3.473088 8.184971,5.209501 14.093197,5.209501 5.835954,0 10.497041,-1.745314 13.984159,-5.235856 3.487117,-3.507995 5.230688,-8.35999 5.230688,-14.555701 0,-6.24807 -1.761178,-11.126255 -5.284432,-14.63425 -3.505185,-3.507994 -8.184914,-5.261694 -14.038936,-5.261694 z m 25.611357,0 v 39.687501 h 8.295617 v -16.567981 h 1.681552 c 1.905786,0 3.297816,0.153105 4.175972,0.45992 0.878156,0.288767 1.709686,0.839422 2.494421,1.651579 0.784736,0.794108 2.241831,2.73412 4.371831,5.820317 l 5.99808,8.636165 h 9.92084 l -5.01623,-7.742681 c -1.98053,-3.086196 -3.55956,-5.233806 -4.73666,-6.443016 -1.15843,-1.209212 -2.63448,-2.319345 -4.42816,-3.33003 3.60605,-0.505343 6.31532,-1.723428 8.12767,-3.654557 1.81237,-1.949177 2.7187,-4.412854 2.7187,-7.390764 0,-2.346231 -0.5979,-4.430524 -1.79369,-6.253365 -1.19578,-1.822842 -2.79327,-3.086597 -4.79247,-3.790467 -1.98053,-0.721917 -5.16626,-1.082621 -9.55704,-1.082621 z m 74.015633,0 v 39.687501 h 8.29562 v -16.865637 h 17.15193 v -6.71432 h -17.15193 v -9.393742 h 19.87062 v -6.713802 z m 51.43924,0 c -3.23416,0 -6.08902,0.505996 -8.56433,1.518254 -1.861,0.750466 -3.57713,1.902311 -5.14904,3.455603 -1.55385,1.553291 -2.78268,3.307507 -3.68608,5.262211 -1.21056,2.652812 -1.81591,5.933919 -1.81591,9.843328 0,6.108446 1.74357,10.908061 5.23069,14.398604 3.48711,3.473088 8.18496,5.209501 14.09319,5.209501 5.83596,0 10.49756,-1.745314 13.98468,-5.235856 3.48712,-3.507995 5.23069,-8.35999 5.23069,-14.555701 0,-6.24807 -1.76169,-11.126255 -5.28495,-14.63425 -3.50519,-3.507994 -8.18492,-5.261694 -14.03894,-5.261694 z m 25.80101,0 v 39.687501 h 29.16204 v -6.742224 h -20.79769 v -32.945277 z m 33.44395,0 v 39.687501 h 8.29562 v -39.687501 z m 33.2543,0 c -3.23415,0 -6.08901,0.505996 -8.56433,1.518254 -1.86101,0.750466 -3.57765,1.902311 -5.14956,3.455603 -1.55385,1.553291 -2.78216,3.307507 -3.68556,5.262211 -1.21055,2.652812 -1.81591,5.933919 -1.81591,9.843328 0,6.108446 1.74357,10.908061 5.23069,14.398604 3.48712,3.473088 8.18497,5.209501 14.0932,5.209501 5.83594,0 10.49704,-1.745314 13.98415,-5.235856 3.48712,-3.507995 5.23069,-8.35999 5.23069,-14.555701 0,-6.24807 -1.76118,-11.126255 -5.28443,-14.63425 -3.50518,-3.507994 -8.18491,-5.261694 -14.03894,-5.261694 z m -243.484358,6.623369 c 3.306439,0 5.953641,1.082177 7.941117,3.246313 2.005544,2.164137 3.008086,5.445244 3.008086,9.843328 0,4.45044 -1.029986,7.792314 -3.089734,10.026261 -2.041681,2.216493 -4.661438,3.324862 -7.859469,3.324862 -3.19803,0 -5.835913,-1.116753 -7.913729,-3.3507 -2.077816,-2.251399 -3.116605,-5.550313 -3.116605,-9.896037 0,-4.415537 1.011861,-7.713932 3.035473,-9.895521 2.023612,-2.199041 4.688423,-3.298506 7.994861,-3.298506 z m 151.066228,0 c 3.30643,0 5.95364,1.082177 7.94112,3.246313 2.00555,2.164137 3.00809,5.445244 3.00809,9.843328 0,4.45044 -1.02948,7.792314 -3.08922,10.026261 -2.04169,2.216493 -4.66196,3.324862 -7.85999,3.324862 -3.19803,0 -5.83591,-1.116753 -7.91373,-3.3507 -2.07782,-2.251399 -3.1166,-5.550313 -3.1166,-9.896037 0,-4.415537 1.01185,-7.713932 3.03547,-9.895521 2.02362,-2.199041 4.68843,-3.298506 7.99486,-3.298506 z m 92.49927,0 c 3.30644,0 5.95364,1.082177 7.94111,3.246313 2.00554,2.164137 3.00809,5.445244 3.00809,9.843328 0,4.45044 -1.02999,7.792314 -3.08973,10.026261 -2.04169,2.216493 -4.66144,3.324862 -7.85947,3.324862 -3.19803,0 -5.83591,-1.116753 -7.91373,-3.3507 -2.07781,-2.251399 -3.11661,-5.550313 -3.11661,-9.896037 0,-4.415537 1.01186,-7.713932 3.03548,-9.895521 2.02361,-2.199041 4.68842,-3.298506 7.99486,-3.298506 z m -290.2350007,0.09043 h 3.8757327 c 2.890875,0 4.814655,0.0903 5.772257,0.270785 1.300894,0.234623 2.376448,0.82109 3.225643,1.759582 0.849195,0.938494 1.273307,2.129592 1.273307,3.573426 0,1.173117 -0.307079,2.201768 -0.92139,3.086116 -0.596244,0.884348 -1.427379,1.534133 -2.493388,1.949236 -1.06601,0.415102 -3.179838,0.622701 -6.341732,0.622701 H 8.0222493 Z m 80.4953447,0 h 6.474024 c 3.363151,0 5.381262,0.04515 6.053892,0.135393 1.34525,0.216575 2.38224,0.739725 3.11092,1.56993 0.74737,0.812157 1.12086,1.886478 1.12086,3.222026 0,1.191163 -0.28024,2.183487 -0.84077,2.977596 -0.56053,0.794107 -1.3357,1.353586 -2.32596,1.678449 -0.99026,0.324864 -3.475628,0.48731 -7.455356,0.48731 h -6.13761 z"
       sodipodi:nodetypes="ccccsccssccscscccscscscsccccscccccccccsscsccccccccccccscccscscscsccccccccccccscccscscscsscscscscsscscscscsscscscscscscsscsscccsccsssscc" /></g></svg>
